<svg width="24" height="18" viewBox="0 0 24 18" fill="none" xmlns="http://www.w3.org/2000/svg">
<path d="M10.5938 0.5625H23.25L22.7812 1.5L23.25 2.4375V4.3125L22.7812 5.25L23.25 6.1875V8.0625L22.7812 9L23.25 9.9375V11.8125L22.7812 12.75L23.25 13.6875V15.5625L22.7812 16.5L23.25 17.4375H0.75L1.21875 16.5L0.75 15.5625V13.6875L1.21875 12.75L0.75 11.8125V9.9375L1.21875 9L0.75 8.0625L10.5938 0.5625Z" fill="#D6062F"/>
<path d="M0.75 15.5625H23.25V17.4375H0.75V15.5625Z" fill="white"/>
<path d="M0.75 11.8125H23.25V13.6875H0.75V11.8125Z" fill="white"/>
<path d="M0.75 8.0625H23.25V9.9375H0.75V8.0625Z" fill="white"/>
<path d="M10.5938 4.3125H23.25V6.1875H10.5938V4.3125Z" fill="white"/>
<path d="M10.5938 0.5625H23.25V2.4375H10.5938V0.5625Z" fill="white"/>
<path d="M0.75 0.5625H10.5938V8.0625H0.75V0.5625Z" fill="#2956B0"/>
<path d="M2.39805 1.00171L2.54687 1.45977H3.02852L2.63884 1.7429L2.78772 2.20096L2.39805 1.91783L2.00838 2.20096L2.15725 1.7429L1.76758 1.45977H2.24922L2.39805 1.00171Z" fill="white"/>
<path d="M4.57969 1.00171L4.72852 1.45977H5.21016L4.82048 1.7429L4.96936 2.20096L4.57969 1.91783L4.19006 2.20096L4.33889 1.7429L3.94922 1.45977H4.43086L4.57969 1.00171Z" fill="white"/>
<path d="M6.76133 1.00171L6.91016 1.45977H7.3918L7.00217 1.7429L7.151 2.20096L6.76133 1.91783L6.3717 2.20096L6.52053 1.7429L6.13086 1.45977H6.6125L6.76133 1.00171Z" fill="white"/>
<path d="M8.94492 1.00171L9.09375 1.45977H9.57539L9.18577 1.7429L9.33459 2.20096L8.94492 1.91783L8.5553 2.20096L8.70413 1.7429L8.31445 1.45977H8.79609L8.94492 1.00171Z" fill="white"/>
<path d="M2.39805 2.80914L2.54687 3.26721H3.02852L2.63884 3.55028L2.78772 4.00835L2.39805 3.72527L2.00838 4.00835L2.15725 3.55028L1.76758 3.26721H2.24922L2.39805 2.80914Z" fill="white"/>
<path d="M4.57969 2.80914L4.72852 3.26721H5.21016L4.82048 3.55028L4.96936 4.00835L4.57969 3.72527L4.19006 4.00835L4.33889 3.55028L3.94922 3.26721H4.43086L4.57969 2.80914Z" fill="white"/>
<path d="M6.76133 2.80914L6.91016 3.26721H7.3918L7.00217 3.55028L7.151 4.00835L6.76133 3.72527L6.3717 4.00835L6.52053 3.55028L6.13086 3.26721H6.6125L6.76133 2.80914Z" fill="white"/>
<path d="M8.94492 2.80914L9.09375 3.26721H9.57539L9.18577 3.55028L9.33459 4.00835L8.94492 3.72527L8.5553 4.00835L8.70413 3.55028L8.31445 3.26721H8.79609L8.94492 2.80914Z" fill="white"/>
<path d="M2.39805 4.61664L2.54687 5.0747H3.02852L2.63884 5.35778L2.78772 5.81584L2.39805 5.53276L2.00838 5.81584L2.15725 5.35778L1.76758 5.0747H2.24922L2.39805 4.61664Z" fill="white"/>
<path d="M4.57969 4.61664L4.72852 5.0747H5.21016L4.82048 5.35778L4.96936 5.81584L4.57969 5.53276L4.19006 5.81584L4.33889 5.35778L3.94922 5.0747H4.43086L4.57969 4.61664Z" fill="white"/>
<path d="M6.76133 4.61664L6.91016 5.0747H7.3918L7.00217 5.35778L7.151 5.81584L6.76133 5.53276L6.3717 5.81584L6.52053 5.35778L6.13086 5.0747H6.6125L6.76133 4.61664Z" fill="white"/>
<path d="M8.94492 4.61664L9.09375 5.0747H9.57539L9.18577 5.35778L9.33459 5.81584L8.94492 5.53276L8.5553 5.81584L8.70413 5.35778L8.31445 5.0747H8.79609L8.94492 4.61664Z" fill="white"/>
<path d="M2.39805 6.42401L2.54687 6.88207H3.02852L2.63884 7.1652L2.78772 7.62326L2.39805 7.34014L2.00838 7.62326L2.15725 7.1652L1.76758 6.88207H2.24922L2.39805 6.42401Z" fill="white"/>
<path d="M4.57969 6.42401L4.72852 6.88207H5.21016L4.82048 7.1652L4.96936 7.62326L4.57969 7.34014L4.19006 7.62326L4.33889 7.1652L3.94922 6.88207H4.43086L4.57969 6.42401Z" fill="white"/>
<path d="M6.76133 6.42401L6.91016 6.88207H7.3918L7.00217 7.1652L7.151 7.62326L6.76133 7.34014L6.3717 7.62326L6.52053 7.1652L6.13086 6.88207H6.6125L6.76133 6.42401Z" fill="white"/>
<path d="M8.94492 6.42401L9.09375 6.88207H9.57539L9.18577 7.1652L9.33459 7.62326L8.94492 7.34014L8.5553 7.62326L8.70413 7.1652L8.31445 6.88207H8.79609L8.94492 6.42401Z" fill="white"/>
</svg>
