<svg width="24" height="24" viewBox="0 0 24 24" fill="none" xmlns="http://www.w3.org/2000/svg">
<path d="M0 4.12875H24V19.8713H0V4.12875Z" fill="#D80027"/>
<path d="M6.53477 7.41674L4.57877 7.41899L4.57352 7.42199L4.57652 7.41674L3.97877 5.47949L3.44777 7.41899L1.50977 7.41674L3.11927 8.55449H3.12902L3.11027 8.56799L2.45552 10.4962L4.01927 9.28574L4.02227 9.27674L4.02527 9.28574L5.58752 10.4962L4.93277 8.56799L4.91552 8.55449H4.92152L6.53477 7.41674Z" fill="#FFDA44"/>
<path d="M9.86389 10.5285H9.46339L9.34114 10.1332L9.23239 10.5285H8.83789L9.16639 10.7617H9.16864L9.16489 10.7647L9.03064 11.1585L9.34939 10.9117L9.35014 10.9095L9.35089 10.9117L9.67039 11.1585L9.53539 10.7647L9.53164 10.7617H9.53389L9.86389 10.5285Z" fill="#FFDA44"/>
<path d="M7.65228 12.5805L7.64103 12.165L7.42953 12.513L7.05078 12.3967L7.30428 12.7162L7.30503 12.717L7.30128 12.7177L7.06728 13.0567L7.43928 12.9142L7.44078 12.912V12.9142L7.67928 13.2442L7.65753 12.8272L7.65678 12.8257L8.03553 12.6975L7.65228 12.5805Z" fill="#FFDA44"/>
<path d="M9.20898 8.48698L9.60498 8.46748L9.60723 8.46598L9.60648 8.46898L9.73998 8.85973L9.83748 8.45398L9.83598 8.45023L9.83748 8.45098L10.235 8.45023L9.90198 8.21848H9.90048L9.90198 8.21698L10.0107 7.81723L9.70998 8.08273L9.38223 7.85248L9.53148 8.23723H9.52923L9.20898 8.48698Z" fill="#FFDA44"/>
<path d="M8.80433 6.09449L8.80733 6.09524L9.18608 5.97299L8.80433 5.85224L8.80283 5.85299L8.80433 5.85074L8.79758 5.43524L8.58308 5.78174L8.20508 5.66024L8.45483 5.98199L8.45783 5.98274L8.45183 5.98499L8.21558 6.31949L8.58833 6.18074L8.58983 6.17849V6.18074L8.82533 6.51599L8.80733 6.09824L8.80433 6.09449Z" fill="#FFDA44"/>
</svg>
