<svg xmlns="http://www.w3.org/2000/svg" xmlns:xlink="http://www.w3.org/1999/xlink" width="300" zoomAndPan="magnify" viewBox="0 0 224.87999 225" height="300" preserveAspectRatio="xMidYMid meet" version="1.0"><defs><clipPath id="2407847448"><path d="M 2 98 L 223 98 L 223 150 L 2 150 Z M 2 98 " clip-rule="nonzero"/></clipPath><clipPath id="440beb7b7b"><path d="M 168.882812 13.308594 L 224.761719 105.664062 L 49.671875 211.601562 L -6.203125 119.246094 Z M 168.882812 13.308594 " clip-rule="nonzero"/></clipPath><clipPath id="48b8fe38b4"><path d="M 168.882812 13.308594 L 224.761719 105.664062 L 49.671875 211.601562 L -6.203125 119.246094 Z M 168.882812 13.308594 " clip-rule="nonzero"/></clipPath><clipPath id="757db0975a"><path d="M 168.882812 13.308594 L 224.761719 105.664062 L 49.671875 211.601562 L -6.203125 119.246094 Z M 168.882812 13.308594 " clip-rule="nonzero"/></clipPath></defs><g clip-path="url(#2407847448)"><g clip-path="url(#440beb7b7b)"><g clip-path="url(#48b8fe38b4)"><g clip-path="url(#757db0975a)"><path fill="#000000" d="M 219.488281 107.953125 C 180.566406 126.425781 126.449219 137.640625 78.726562 135.988281 C 60.316406 134.558594 42.25 131.285156 24.523438 126.164062 C 28.699219 129.140625 33.390625 132.351562 37.40625 134.832031 C 41.878906 137.78125 41.761719 137.671875 44.507812 139.625 L 44.449219 139.574219 C 44.492188 139.597656 44.523438 139.644531 44.566406 139.667969 L 44.886719 139.894531 C 45.964844 140.652344 45.140625 140.09375 44.691406 139.765625 C 45.148438 140.050781 45.546875 140.398438 45.894531 140.808594 C 46.238281 141.21875 46.511719 141.671875 46.71875 142.167969 C 46.921875 142.660156 47.046875 143.175781 47.089844 143.710938 C 47.132812 144.246094 47.09375 144.773438 46.972656 145.296875 C 43.390625 154.464844 33.382812 144.84375 26.644531 141.035156 C 20.953125 136.15625 -2.835938 124.757812 3.847656 115.914062 C 3.941406 115.445312 4.089844 114.996094 4.289062 114.5625 C 4.492188 114.132812 4.738281 113.726562 5.035156 113.351562 C 5.328125 112.976562 5.664062 112.640625 6.039062 112.34375 C 6.410156 112.046875 6.8125 111.796875 7.246094 111.59375 C 7.679688 111.390625 8.128906 111.238281 8.59375 111.140625 C 9.0625 111.042969 9.535156 111 10.011719 111.011719 C 10.488281 111.023438 10.957031 111.089844 11.417969 111.210938 C 11.878906 111.332031 12.320312 111.507812 12.742188 111.730469 C 23.761719 108.191406 34.878906 104.867188 45.9375 101.433594 C 46.464844 101.296875 47 101.234375 47.542969 101.253906 C 48.085938 101.269531 48.617188 101.363281 49.132812 101.535156 C 49.648438 101.703125 50.128906 101.945312 50.578125 102.253906 C 51.023438 102.566406 51.414062 102.933594 51.753906 103.355469 C 52.09375 103.78125 52.363281 104.242188 52.570312 104.746094 C 52.773438 105.25 52.902344 105.769531 52.953125 106.3125 C 53.007812 106.851562 52.980469 107.390625 52.878906 107.921875 C 52.773438 108.457031 52.597656 108.964844 52.34375 109.449219 C 49.558594 113.550781 43.492188 113.183594 39.246094 115.078125 C 37.273438 115.691406 35.296875 116.292969 33.324219 116.90625 C 53.6875 121.925781 72.957031 125.957031 92.859375 125.082031 C 112.832031 124.46875 132.613281 122.171875 152.199219 118.1875 C 171.789062 114.199219 190.902344 108.585938 209.539062 101.347656 C 212.523438 100.609375 215.4375 98.402344 218.574219 98.929688 C 219.070312 99.066406 219.53125 99.273438 219.960938 99.550781 C 220.390625 99.832031 220.769531 100.171875 221.089844 100.574219 C 221.410156 100.972656 221.660156 101.414062 221.84375 101.890625 C 222.023438 102.371094 222.125 102.867188 222.148438 103.382812 C 222.171875 103.894531 222.117188 104.398438 221.980469 104.894531 C 221.84375 105.386719 221.632812 105.851562 221.351562 106.277344 C 221.066406 106.707031 220.722656 107.082031 220.320312 107.402344 C 219.917969 107.722656 219.476562 107.972656 218.996094 108.15625 C 219.394531 107.980469 219.925781 107.75 219.488281 107.953125 Z M 219.488281 107.953125 " fill-opacity="1" fill-rule="nonzero"/></g></g></g></g></svg>