<svg width="22" height="14" viewBox="0 0 22 14" fill="none" xmlns="http://www.w3.org/2000/svg">
<path d="M12.8242 0.612244H21.9495V1.52499H12.8242V0.612244Z" fill="#D81E34"/>
<path d="M12.8242 1.52496H21.9495V2.43734H12.8242V1.52496Z" fill="#E1E1E1"/>
<path d="M12.8242 2.43738H21.9495V3.34975H12.8242V2.43738Z" fill="#D81E34"/>
<path d="M12.8242 3.34973H21.9495V4.26248H12.8242V3.34973Z" fill="#E1E1E1"/>
<path d="M12.8242 4.26251H21.9495V5.17489H12.8242V4.26251Z" fill="#D81E34"/>
<path d="M12.8242 5.17487H21.9495V6.08762H12.8242V5.17487Z" fill="#E1E1E1"/>
<path d="M12.8242 6.08765H21.9495V7.0004H12.8242V6.08765Z" fill="#D81E34"/>
<path d="M12.8242 7H21.9495V7.91237H12.8242V7Z" fill="#E1E1E1"/>
<path d="M0.0507812 7.91272V8.8251H21.95V7.91272H12.8248H0.0507812Z" fill="#D81E34"/>
<path d="M0.0507812 8.82513H21.95V9.73788H0.0507812V8.82513Z" fill="#E1E1E1"/>
<path d="M0.0507812 9.73785H21.95V10.6502H0.0507812V9.73785Z" fill="#D81E34"/>
<path d="M0.0507812 10.6503H21.95V11.5626H0.0507812V10.6503Z" fill="#E1E1E1"/>
<path d="M0.0507812 11.5626H21.95V12.4757H0.0507812V11.5626Z" fill="#D81E34"/>
<path d="M0.0507812 12.4753H21.95V13.3877H0.0507812V12.4753Z" fill="white"/>
<path d="M12.8248 6.99999V6.08724V5.17449V4.26249V3.34974V2.43737V1.52499V0.612244H0.0507812V1.52499V2.43737V3.34974V4.26249V5.17487V6.08762V6.99999V7.91237H12.8248V6.99999ZM5.29778 6.99999C3.78616 6.99999 2.55916 5.77637 2.55916 4.26249C2.55916 2.75049 3.78578 1.52499 5.29778 1.52499C5.99641 1.52499 6.63503 1.78749 7.12066 2.22099C6.75428 1.99637 6.32678 1.86662 5.86741 1.86662C4.54628 1.86662 3.47153 2.93912 3.47153 4.26249C3.47153 5.58549 4.54591 6.65837 5.86741 6.65837C6.32678 6.65837 6.75428 6.52824 7.12066 6.30399C6.63503 6.73449 5.99641 6.99999 5.29778 6.99999ZM10.2583 4.76987L8.85803 4.65774L9.81916 5.68749L8.60416 4.97649L9.02378 6.31712L8.23703 5.15237L8.0349 6.54662L7.88903 5.54762L7.84816 5.26187L7.83203 5.15237L7.04528 6.31712L7.46641 4.97649L6.25141 5.68749L7.21253 4.65737L5.81153 4.76949L7.12291 4.26249L5.81116 3.75512L7.21216 3.86724L6.25103 2.84012L7.46603 3.54887L7.04491 2.20824L7.83166 3.37299L7.84778 3.26574L7.88866 2.97774L8.03453 1.98137L8.23666 3.37299L9.02341 2.20824L8.60378 3.54887L9.81878 2.84012L8.85766 3.86724L10.2579 3.75512L8.94728 4.26249L10.2583 4.76987Z" fill="#313F99"/>
<path d="M3.47134 4.26246C3.47134 2.93909 4.54572 1.86659 5.86722 1.86659C6.32659 1.86659 6.75409 1.99634 7.12047 2.22096C6.63447 1.78746 5.99584 1.52496 5.29722 1.52496C3.78559 1.52496 2.55859 2.75084 2.55859 4.26246C2.55859 5.77634 3.78522 6.99996 5.29722 6.99996C5.99584 6.99996 6.63447 6.73446 7.12009 6.30396C6.75372 6.52859 6.32622 6.65834 5.86684 6.65834C4.54572 6.65834 3.47134 5.58546 3.47134 4.26246Z" fill="#F5D02C"/>
<path d="M8.85742 3.8672L9.81855 2.84007L8.60317 3.54882L9.02317 2.2082L8.23642 3.37295L8.0343 1.98132L7.88842 2.9777L7.84755 3.2657L7.83142 3.37295L7.04467 2.2082L7.4658 3.54882L6.2508 2.84007L7.21155 3.8672L5.81055 3.75507L7.1223 4.26245L5.81055 4.76982L7.21155 4.65732L6.2508 5.68745L7.4658 4.97645L7.04467 6.3167L7.83142 5.15195L7.84755 5.26145L7.88842 5.5472L8.0343 6.5462L8.23642 5.15195L9.02317 6.3167L8.60317 4.97645L9.81855 5.68745L8.85742 4.65732L10.2577 4.76982L8.94667 4.26245L10.2577 3.75507L8.85742 3.8672Z" fill="#F5D02C"/>
</svg>
