<svg xmlns="http://www.w3.org/2000/svg" xmlns:xlink="http://www.w3.org/1999/xlink" width="300" zoomAndPan="magnify" viewBox="0 0 224.87999 225" height="300" preserveAspectRatio="xMidYMid meet" version="1.0"><defs><clipPath id="38f9b4a37f"><path d="M 26 46 L 222 46 L 222 223 L 26 223 Z M 26 46 " clip-rule="nonzero"/></clipPath><clipPath id="1615cffb5c"><path d="M 252.457031 103.261719 L 220.023438 224.949219 L -10.308594 163.558594 L 22.125 41.875 Z M 252.457031 103.261719 " clip-rule="nonzero"/></clipPath><clipPath id="a774bf8d47"><path d="M 252.457031 103.261719 L 220.023438 224.949219 L -10.308594 163.558594 L 22.125 41.875 Z M 252.457031 103.261719 " clip-rule="nonzero"/></clipPath><clipPath id="b61ca24450"><path d="M 252.457031 103.261719 L 220.023438 224.949219 L -10.308594 163.558594 L 22.125 41.875 Z M 252.457031 103.261719 " clip-rule="nonzero"/></clipPath></defs><g clip-path="url(#38f9b4a37f)"><g clip-path="url(#1615cffb5c)"><g clip-path="url(#a774bf8d47)"><g clip-path="url(#b61ca24450)"><path fill="#000000" d="M 213.84375 222.375 C 166.90625 204.617188 113.792969 168.21875 76.644531 126.78125 C 62.980469 110.160156 51.140625 92.328125 41.128906 73.285156 C 42 79.207031 43.089844 85.75 44.253906 91.128906 C 45.390625 97.273438 45.386719 97.085938 45.960938 100.972656 L 45.957031 100.886719 C 45.972656 100.941406 45.957031 101 45.972656 101.058594 L 46.039062 101.507812 C 46.273438 103.03125 46.078125 101.882812 45.992188 101.242188 C 46.121094 101.855469 46.152344 102.472656 46.085938 103.09375 C 46.019531 103.71875 45.863281 104.316406 45.613281 104.886719 C 45.359375 105.460938 45.027344 105.980469 44.613281 106.449219 C 44.199219 106.917969 43.726562 107.316406 43.1875 107.636719 C 32.597656 112.042969 32.597656 95.851562 30.355469 87.105469 C 29.855469 78.375 20.21875 49.164062 33.039062 47.621094 C 33.273438 47.472656 33.515625 47.335938 33.765625 47.214844 C 34.015625 47.097656 34.269531 46.992188 34.53125 46.902344 C 34.792969 46.808594 35.0625 46.734375 35.332031 46.675781 C 35.601562 46.617188 35.875 46.570312 36.152344 46.542969 C 36.425781 46.515625 36.703125 46.503906 36.980469 46.507812 C 37.257812 46.515625 37.535156 46.535156 37.808594 46.570312 C 38.082031 46.609375 38.355469 46.660156 38.625 46.730469 C 38.890625 46.796875 39.15625 46.878906 39.414062 46.980469 C 39.671875 47.078125 39.925781 47.191406 40.171875 47.320312 C 40.417969 47.449219 40.65625 47.589844 40.882812 47.746094 C 41.113281 47.902344 41.332031 48.070312 41.542969 48.253906 C 41.75 48.433594 41.949219 48.628906 42.136719 48.832031 C 42.324219 49.039062 42.496094 49.25 42.660156 49.476562 C 42.820312 49.703125 42.96875 49.933594 43.101562 50.175781 C 43.238281 50.417969 43.359375 50.667969 43.464844 50.925781 C 43.570312 51.179688 43.660156 51.441406 43.734375 51.707031 C 55.609375 58.105469 67.375 64.757812 79.1875 71.269531 C 79.726562 71.601562 80.210938 72 80.636719 72.472656 C 81.058594 72.941406 81.410156 73.464844 81.683594 74.035156 C 81.957031 74.605469 82.144531 75.207031 82.242188 75.832031 C 82.34375 76.457031 82.351562 77.085938 82.269531 77.710938 C 82.1875 78.339844 82.015625 78.945312 81.757812 79.523438 C 81.5 80.101562 81.167969 80.632812 80.753906 81.113281 C 80.34375 81.59375 79.871094 82.007812 79.339844 82.351562 C 78.808594 82.699219 78.238281 82.960938 77.628906 83.140625 C 71.933594 84.113281 67.34375 78.722656 62.328125 76.6875 C 60.21875 75.527344 58.117188 74.355469 56.007812 73.191406 C 68.238281 94.367188 80.410156 113.820312 97.214844 129.835938 C 113.855469 146.121094 131.757812 160.882812 150.921875 174.117188 C 170.082031 187.347656 190.230469 198.867188 211.359375 208.667969 C 214.390625 210.578125 218.59375 211.238281 220.683594 214.304688 C 220.972656 214.828125 221.171875 215.386719 221.28125 215.972656 C 221.394531 216.5625 221.410156 217.152344 221.335938 217.746094 C 221.257812 218.339844 221.09375 218.90625 220.835938 219.445312 C 220.578125 219.988281 220.246094 220.476562 219.832031 220.910156 C 219.421875 221.34375 218.953125 221.703125 218.425781 221.992188 C 217.902344 222.277344 217.34375 222.472656 216.753906 222.582031 C 216.164062 222.691406 215.574219 222.707031 214.980469 222.628906 C 214.386719 222.550781 213.816406 222.382812 213.277344 222.121094 C 213.746094 222.316406 214.367188 222.578125 213.84375 222.375 Z M 213.84375 222.375 " fill-opacity="1" fill-rule="nonzero"/></g></g></g></g></svg>