<svg width="24" height="24" viewBox="0 0 24 24" fill="none" xmlns="http://www.w3.org/2000/svg">
<path d="M24 4.00018H0V19.9998H24V4.00018Z" fill="#F0F0F0"/>
<path d="M24 4.00018H0V12H24V4.00018Z" fill="#D80027"/>
<path d="M3.91258 7.99997C3.91258 6.83442 4.73177 5.86073 5.82564 5.62181C5.6575 5.58506 5.48308 5.56519 5.30392 5.56519C3.95917 5.56519 2.86914 6.65522 2.86914 7.99992C2.86914 9.34462 3.95922 10.4347 5.30392 10.4347C5.48308 10.4347 5.6575 10.4148 5.82564 10.3781C4.73177 10.1392 3.91258 9.16556 3.91258 7.99997Z" fill="#F0F0F0"/>
<path d="M7.04398 5.73914L7.21667 6.27056H7.77547L7.32336 6.59901L7.49605 7.13043L7.04398 6.80203L6.59187 7.13043L6.76461 6.59901L6.3125 6.27056H6.8713L7.04398 5.73914Z" fill="#F0F0F0"/>
<path d="M5.68852 6.78259L5.86116 7.31401H6.41995L5.96784 7.64247L6.14053 8.17389L5.68852 7.84548L5.23641 8.17389L5.40914 7.64247L4.95703 7.31401H5.51583L5.68852 6.78259Z" fill="#F0F0F0"/>
<path d="M8.39941 6.78259L8.57209 7.31401H9.13089L8.67878 7.64247L8.85147 8.17389L8.39941 7.84548L7.94734 8.17389L8.12008 7.64247L7.66797 7.31401H8.22677L8.39941 6.78259Z" fill="#F0F0F0"/>
<path d="M7.87592 8.34784L8.04861 8.87926H8.60741L8.15534 9.20771L8.32803 9.73914L7.87592 9.41073L7.42391 9.73914L7.59659 9.20771L7.14453 8.87926H7.70328L7.87592 8.34784Z" fill="#F0F0F0"/>
<path d="M6.20995 8.34784L6.38259 8.87926H6.94139L6.48933 9.20771L6.66202 9.73914L6.20995 9.41073L5.75789 9.73914L5.93058 9.20771L5.47852 8.87926H6.03727L6.20995 8.34784Z" fill="#F0F0F0"/>
</svg>
