<svg width="24" height="24" viewBox="0 0 24 24" fill="none" xmlns="http://www.w3.org/2000/svg">
<path d="M0.413812 19.8621H23.5862C23.8147 19.8621 24 19.6768 24 19.4483V4.55175C24 4.32324 23.8147 4.13794 23.5862 4.13794H0.413812C0.185297 4.13799 0 4.32324 0 4.55175V19.4483C0 19.6768 0.185297 19.8621 0.413812 19.8621Z" fill="#C8414B"/>
<path d="M24 7.44849H0V16.5521H24V7.44849Z" fill="#FFD250"/>
<path d="M10.1377 12L10.4886 10.4213C10.5209 10.2758 10.4103 10.1379 10.2613 10.1379H10.0142C9.86524 10.1379 9.75462 10.2758 9.78687 10.4213L10.1377 12Z" fill="#C8414B"/>
<path d="M10.5522 11.1722H9.72461V14.6893H10.5522V11.1722Z" fill="#F5F5F5"/>
<path d="M10.759 10.7588H9.51758V11.1726H10.759V10.7588Z" fill="#FAB446"/>
<path d="M10.7585 12.0001H8.68945V12.4139H10.7585V12.0001Z" fill="#C8414B"/>
<path d="M10.759 13.6552L9.51758 13.2414V12.8276L10.759 13.2414V13.6552Z" fill="#C8414B"/>
<path d="M3.9307 12L4.28156 10.4213C4.3139 10.2758 4.20323 10.1379 4.05426 10.1379H3.80714C3.65821 10.1379 3.54759 10.2758 3.57984 10.4213L3.9307 12Z" fill="#C8414B"/>
<path d="M5.37866 10.7587C5.15014 10.7587 4.96484 10.944 4.96484 11.1725V13.8621C4.96484 14.3648 5.43406 15.3104 7.03381 15.3104C8.63356 15.3104 9.10277 14.3649 9.10277 13.8621V11.1725C9.10277 10.944 8.91748 10.7587 8.68896 10.7587H5.37866Z" fill="#F5F5F5"/>
<path d="M7.03381 12.8276H4.96484V11.1725C4.96484 10.944 5.15014 10.7587 5.37866 10.7587H7.03381V12.8276Z" fill="#C8414B"/>
<path d="M7.0332 12.8276H9.10217V13.8621C9.10217 14.4335 8.63904 14.8966 8.06769 14.8966C7.49633 14.8966 7.0332 14.4335 7.0332 13.8621V12.8276Z" fill="#C8414B"/>
<path d="M4.96484 12.8276H7.03381V13.8621C7.03381 14.4334 6.57068 14.8965 5.99933 14.8965C5.42797 14.8965 4.96484 14.4334 4.96484 13.8621V12.8276Z" fill="#FAB446"/>
<path d="M6.62084 14.685V12.8276H6.20703V14.8757C6.36097 14.8445 6.50005 14.7763 6.62084 14.685Z" fill="#C8414B"/>
<path d="M5.79272 14.8757V12.8276H5.37891V14.685C5.49975 14.7763 5.63883 14.8445 5.79272 14.8757Z" fill="#C8414B"/>
<path d="M6.62029 12H5.37891V12.4138H6.62029V12Z" fill="#FFB441"/>
<path d="M6.62029 11.1722H5.37891V11.5861H6.62029V11.1722Z" fill="#FAB446"/>
<path d="M6.41351 11.4183H5.58594V12.168H6.41351V11.4183Z" fill="#FAB446"/>
<path d="M4.34515 11.1722H3.51758V14.6893H4.34515V11.1722Z" fill="#F5F5F5"/>
<path d="M4.55193 14.483H3.31055V14.8968H4.55193V14.483Z" fill="#FAB446"/>
<path d="M4.55193 10.7588H3.31055V11.1726H4.55193V10.7588Z" fill="#FAB446"/>
<path d="M4.75867 14.8964H3.10352V15.3102H4.75867V14.8964Z" fill="#5064AA"/>
<path d="M10.966 14.483H9.72461V14.8968H10.966V14.483Z" fill="#FAB446"/>
<path d="M10.9657 14.8964H9.31055V15.3102H10.9657V14.8964Z" fill="#5064AA"/>
<path d="M8.27575 10.3448H5.79297V10.7587H8.27575V10.3448Z" fill="#FAB446"/>
<path d="M7.24194 9.10364H6.82812V10.345H7.24194V9.10364Z" fill="#FFB441"/>
<path d="M6.62067 9.72413C6.27839 9.72413 6 9.44569 6 9.10346C6 8.76118 6.27844 8.48279 6.62067 8.48279C6.96295 8.48279 7.24134 8.76122 7.24134 9.10346C7.24139 9.44569 6.96295 9.72413 6.62067 9.72413ZM6.62067 8.89655C6.50653 8.89655 6.41376 8.98927 6.41376 9.10346C6.41376 9.2176 6.50648 9.31036 6.62067 9.31036C6.73486 9.31036 6.82758 9.21765 6.82758 9.10346C6.82758 8.98932 6.73486 8.89655 6.62067 8.89655Z" fill="#F5F5F5"/>
<path d="M7.44684 9.72413C7.10456 9.72413 6.82617 9.44569 6.82617 9.10346C6.82617 8.76118 7.10461 8.48279 7.44684 8.48279C7.78912 8.48279 8.06751 8.76122 8.06751 9.10346C8.06751 9.44569 7.78908 9.72413 7.44684 9.72413ZM7.44684 8.89655C7.3327 8.89655 7.23994 8.98927 7.23994 9.10346C7.23994 9.2176 7.33266 9.31036 7.44684 9.31036C7.56098 9.31036 7.65375 9.21765 7.65375 9.10346C7.6537 8.98932 7.56098 8.89655 7.44684 8.89655Z" fill="#F5F5F5"/>
<path d="M8.27497 10.1379C7.93269 10.1379 7.6543 9.85951 7.6543 9.51728C7.6543 9.175 7.93273 8.89661 8.27497 8.89661C8.61725 8.89661 8.89564 9.17504 8.89564 9.51728C8.89564 9.85951 8.6172 10.1379 8.27497 10.1379ZM8.27497 9.31037C8.16083 9.31037 8.06806 9.40309 8.06806 9.51728C8.06806 9.63142 8.16078 9.72418 8.27497 9.72418C8.38911 9.72418 8.48187 9.63146 8.48187 9.51728C8.48187 9.40309 8.38911 9.31037 8.27497 9.31037Z" fill="#F5F5F5"/>
<path d="M5.79255 10.1379C5.45026 10.1379 5.17188 9.85951 5.17188 9.51728C5.17188 9.175 5.45031 8.89661 5.79255 8.89661C6.13483 8.89661 6.41322 9.17504 6.41322 9.51728C6.41326 9.85951 6.13483 10.1379 5.79255 10.1379ZM5.79255 9.31037C5.67841 9.31037 5.58564 9.40309 5.58564 9.51728C5.58564 9.63142 5.67836 9.72418 5.79255 9.72418C5.90673 9.72418 5.99945 9.63142 5.99945 9.51723C5.99945 9.40309 5.90673 9.31037 5.79255 9.31037Z" fill="#F5F5F5"/>
<path d="M8.27489 13.6552V13.8621C8.27489 13.9762 8.18208 14.069 8.06798 14.069C7.95389 14.069 7.86108 13.9762 7.86108 13.8621V13.6552H8.27489ZM8.68865 13.2414H7.44727V13.8621C7.44727 14.2043 7.7257 14.4827 8.06794 14.4827C8.41022 14.4827 8.68861 14.2043 8.68861 13.8621V13.2414H8.68865Z" fill="#FAB446"/>
<path d="M8.06811 12.4139C7.83959 12.4139 7.6543 12.2286 7.6543 12V11.5862C7.6543 11.3577 7.83959 11.1724 8.06811 11.1724C8.29662 11.1724 8.48192 11.3577 8.48192 11.5862V12C8.48192 12.2286 8.29662 12.4139 8.06811 12.4139Z" fill="#FFA0D2"/>
<path d="M7.03473 13.448C7.37752 13.448 7.6554 13.1701 7.6554 12.8273C7.6554 12.4845 7.37752 12.2067 7.03473 12.2067C6.69195 12.2067 6.41406 12.4845 6.41406 12.8273C6.41406 13.1701 6.69195 13.448 7.03473 13.448Z" fill="#5064AA"/>
<path d="M7.24194 8.27582H6.82812V9.51721H7.24194V8.27582Z" fill="#FAB446"/>
<path d="M5.79272 10.3448L5.37891 9.93103L5.6213 9.68864C5.99597 9.31397 6.50419 9.10345 7.03411 9.10345C7.56403 9.10345 8.0722 9.31397 8.44692 9.68864L8.68931 9.93103L8.27549 10.3448H5.79272Z" fill="#C8414B"/>
<path d="M7.03503 10.1379C7.1493 10.1379 7.24194 10.0452 7.24194 9.93097C7.24194 9.81669 7.1493 9.72406 7.03503 9.72406C6.92076 9.72406 6.82812 9.81669 6.82812 9.93097C6.82812 10.0452 6.92076 10.1379 7.03503 10.1379Z" fill="#FFD250"/>
<path d="M6.20691 10.1379C6.32118 10.1379 6.41381 10.0452 6.41381 9.93097C6.41381 9.81669 6.32118 9.72406 6.20691 9.72406C6.09263 9.72406 6 9.81669 6 9.93097C6 10.0452 6.09263 10.1379 6.20691 10.1379Z" fill="#FFD250"/>
<path d="M7.8612 10.1379C7.97547 10.1379 8.06811 10.0452 8.06811 9.93097C8.06811 9.81669 7.97547 9.72406 7.8612 9.72406C7.74693 9.72406 7.6543 9.81669 7.6543 9.93097C7.6543 10.0452 7.74693 10.1379 7.8612 10.1379Z" fill="#FFD250"/>
<path d="M5.37961 12H3.31055V12.4138H5.37961V12Z" fill="#C8414B"/>
<path d="M3.31055 13.6552L4.55189 13.2414V12.8276L3.31055 13.2414V13.6552Z" fill="#C8414B"/>
</svg>
