<svg width="24" height="24" viewBox="0 0 24 24" fill="none" xmlns="http://www.w3.org/2000/svg">
<path d="M24 4.00018H0V19.9998H24V4.00018Z" fill="#D80027"/>
<path d="M24 8.52155H0V15.4784H24V8.52155Z" fill="#0052B4"/>
<path d="M17.217 13.3993L16.8405 13.6935L17.004 14.1424L16.6078 13.8753L16.2313 14.1694L16.3629 13.7101L15.9668 13.4429L16.4444 13.4263L16.5761 12.967L16.7396 13.416L17.217 13.3993Z" fill="#F0F0F0"/>
<path d="M16.2536 11.7294L16.0005 12.1347L16.3076 12.5007L15.844 12.3852L15.5908 12.7903L15.5574 12.3136L15.0938 12.198L15.5368 12.019L15.5035 11.5423L15.8107 11.9084L16.2536 11.7294Z" fill="#F0F0F0"/>
<path d="M14.7773 10.4899L14.678 10.9573L15.0918 11.1962L14.6166 11.2463L14.5172 11.7136L14.3228 11.2771L13.8477 11.327L14.2027 11.0072L14.0084 10.5708L14.4222 10.8097L14.7773 10.4899Z" fill="#F0F0F0"/>
<path d="M12.9645 9.83044L13.031 10.3036L13.5015 10.3866L13.0721 10.5961L13.1385 11.0693L12.8066 10.7256L12.3771 10.935L12.6015 10.513L12.2695 10.1694L12.7402 10.2523L12.9645 9.83044Z" fill="#F0F0F0"/>
<path d="M11.0371 9.83044L11.2615 10.2523L11.732 10.1694L11.4 10.5131L11.6243 10.9351L11.1949 10.7256L10.863 11.0692L10.9295 10.5961L10.5 10.3867L10.9706 10.3036L11.0371 9.83044Z" fill="#F0F0F0"/>
<path d="M9.22455 10.4899L9.57977 10.8097L9.99344 10.5708L9.79919 11.0074L10.1542 11.3271L9.67905 11.2771L9.48466 11.7136L9.38542 11.2462L8.91016 11.1963L9.32402 10.9574L9.22455 10.4899Z" fill="#F0F0F0"/>
<path d="M7.74727 11.7294L8.19037 11.9084L8.49741 11.5424L8.46417 12.0191L8.90714 12.1981L8.4435 12.3137L8.41013 12.7903L8.15705 12.3851L7.69336 12.5007L8.00048 12.1346L7.74727 11.7294Z" fill="#F0F0F0"/>
<path d="M6.7832 13.3993L7.26086 13.416L7.42417 12.967L7.55603 13.4264L8.0335 13.4431L7.63731 13.7103L7.76903 14.1696L7.39253 13.8754L6.99644 14.1425L7.15984 13.6935L6.7832 13.3993Z" fill="#F0F0F0"/>
<path d="M24 4.00018H0V8.52156H24V4.00018Z" fill="#FFDA44"/>
</svg>
